<svg width="10" height="10" viewBox="0 0 10 10" fill="none" xmlns="http://www.w3.org/2000/svg">
<path d="M9.83726 4.80834L5.85222 0.766123C5.62698 0.538571 5.26082 0.538571 5.03558 0.766123C4.80976 0.993674 4.80976 1.3633 5.03558 1.59085L8.61403 5.2207L5.03558 8.85055C4.80976 9.0781 4.80976 9.44773 5.03558 9.67528C5.26139 9.90283 5.62698 9.90283 5.85222 9.67528L9.83668 5.63307C10.0544 5.41418 10.055 5.0278 9.83726 4.80834Z" fill="#078FC8"/>
<path d="M5.79429 4.80834L1.80983 0.766123C1.58401 0.538571 1.21843 0.538571 0.993184 0.766123C0.767365 0.993674 0.767365 1.3633 0.993184 1.59085L4.57106 5.2207L0.992606 8.85055C0.766787 9.0781 0.766787 9.44773 0.992606 9.67528C1.21843 9.90283 1.58401 9.90283 1.80925 9.67528L5.79371 5.63307C6.01145 5.41418 6.01202 5.0278 5.79429 4.80834Z" fill="#078FC8"/>
</svg>
