<svg width="243" height="56" viewBox="0 0 243 56" fill="none" xmlns="http://www.w3.org/2000/svg">
<path d="M25.1282 45.9776C19.4781 42.5247 14.8875 38.0899 11.6341 32.336C9.95065 29.3551 8.64929 26.2891 8.1956 22.8772C7.15093 15.2211 10.5237 9.74568 17.9857 7.01385C22.1644 5.47793 26.537 4.96205 30.9605 4.81842C33.3841 4.74807 36.4316 6.53021 37.7389 8.62891C37.0733 9.04514 36.4047 8.73443 35.7331 8.68754C29.6651 8.25959 23.7284 8.56443 18.2185 11.5366C13.1354 14.2743 11.4192 20.5792 12.6847 25.5416C14.3532 32.0664 17.8424 37.4011 22.5345 42.1143C23.2956 43.3777 24.7999 43.873 25.6655 45.0455C26.2624 45.8428 26.149 46.1359 25.1282 45.9776Z" fill="white"/>
<path d="M190.666 38.4124C190.628 40.4847 190.52 42.557 190.58 44.6235C190.619 45.9014 190.237 46.5229 188.867 46.3822C188.356 46.3299 187.842 46.3348 187.332 46.3968C185.947 46.5668 185.616 45.9366 185.622 44.6674C185.672 37.1871 185.672 29.7059 185.622 22.2236C185.622 20.7874 185.992 20.2422 187.553 20.2861C190.556 20.3711 190.559 20.2861 190.559 23.3082C190.559 27.7049 190.559 32.1016 190.559 37.0846C192.442 34.596 193.98 32.553 195.532 30.5217C196.534 29.2086 199.51 28.3615 200.976 28.9975C201.967 29.4284 201.164 30.0176 200.922 30.3224C199.585 31.9961 198.236 33.6698 196.743 35.2174C195.397 36.6185 195.323 37.7411 196.717 39.2155C198.49 41.0914 200 43.2048 201.656 45.1892C202.283 45.9425 202.125 46.2913 201.17 46.3616C198.848 46.5229 196.594 46.7544 195.323 44.0519C194.669 42.6596 193.475 41.5077 192.526 40.2414C191.81 39.7343 191.926 38.4006 190.666 38.4124Z" fill="white"/>
<path d="M171.741 29.3143C173.293 31.5273 175.889 32.1076 178.137 33.2098C181.916 35.0652 183.593 38.2543 182.554 41.7746C181.868 44.1019 180.167 45.4532 177.961 46.1713C174.589 47.277 170.927 47.1668 167.63 45.8606C166.649 45.4825 165.762 42.0941 166.475 41.4199C166.932 40.989 167.257 41.5078 167.628 41.6896C170.191 42.9412 172.824 43.7795 175.713 42.862C176.856 42.4927 177.803 41.9651 177.865 40.5669C177.94 39.1014 177.367 37.9905 176.074 37.2958C173.943 36.1614 171.732 35.1648 169.66 33.9425C165.962 31.7588 165.064 26.1281 169.09 23.4168C170.304 22.5607 171.684 21.958 173.145 21.646C174.605 21.3339 176.115 21.3191 177.582 21.6024C178.024 21.6739 178.471 21.7189 178.919 21.7372C181.623 21.8985 182.387 22.9332 181.796 25.5272C181.531 26.6997 180.847 26.0343 180.346 25.8878C178.062 25.2165 175.788 24.7153 173.421 25.5243C172.746 25.7558 172.111 25.9933 171.741 26.6411C171.361 27.5351 171.156 28.4232 171.741 29.3143Z" fill="white"/>
<path d="M15.1529 43.6767C11.1115 40.8042 7.90585 37.152 5.26731 33.0572C2.47027 28.7589 0.703639 23.893 0.100658 18.8265C-0.624642 12.8088 2.62876 6.19614 7.9536 3.18878C10.4877 1.75838 13.2755 1.13698 16.0125 0.35436C18.2003 -0.269975 20.0151 0.55954 21.6836 1.84338C21.9821 2.07787 22.3611 2.35047 22.2477 2.75204C22.1343 3.15361 21.6507 3.13895 21.2657 3.15654C18.9125 3.26989 16.5897 3.7273 14.3739 4.51366C6.39257 7.3217 3.3869 14.2744 4.52111 21.7869C5.65533 29.2994 9.43704 35.5252 14.6694 40.9801C14.8706 41.2214 15.0532 41.4771 15.2156 41.7451C15.4275 42.1232 15.8125 42.4075 15.9737 42.7886C16.3408 43.6005 16.102 43.9845 15.1529 43.6767Z" fill="white"/>
<path d="M118.026 31.366C119.22 29.8829 120.527 28.7485 122.402 28.5433C124.712 28.2913 126.554 29.109 127.792 31.0495C128.407 32.0079 128.667 31.9288 129.315 30.9938C130.825 28.7954 133.553 28.0157 136.29 28.7778C138.436 29.3641 139.755 31.155 140.036 33.878C140.418 37.5742 140.245 41.285 140.269 44.99C140.269 45.9807 139.97 46.4556 138.836 46.479C137.585 46.5113 137.55 45.8664 137.556 44.9578C137.585 41.6895 137.579 38.4242 137.556 35.156C137.541 32.0988 136.311 30.6186 133.783 30.5512C131.371 30.4896 129.141 32.7437 129.115 35.3377C129.085 38.4154 129.115 41.4931 129.115 44.5738C129.115 45.5323 129.24 46.438 127.712 46.4409C126.252 46.4409 126.237 45.6583 126.24 44.6265C126.255 41.4873 126.261 38.3451 126.198 35.2029C126.136 32.0607 124.76 30.5365 122.22 30.5394C119.886 30.5394 117.865 32.6235 117.799 35.2791C117.722 38.3568 117.799 41.4345 117.781 44.5152C117.781 45.3945 118.107 46.4409 116.492 46.4644C114.97 46.4849 115.062 45.5557 115.059 44.6148C115.047 40.0285 115.047 35.4413 115.059 30.8531C115.059 29.9268 114.85 28.9889 116.396 28.9127C117.943 28.8364 117.799 29.751 117.823 30.6977C117.867 30.9269 117.935 31.1509 118.026 31.366Z" fill="white"/>
<path d="M241.008 32.5179C239.321 31.9577 237.542 31.7131 235.763 31.7969C234.868 31.8232 233.886 31.8877 233.614 32.9693C233.316 34.1418 233.961 34.9097 234.981 35.3699C236.202 35.9151 237.453 36.3988 238.701 36.8883C240.736 37.6885 241.96 39.1775 242.017 41.285C242.073 43.3925 240.784 44.8375 238.865 45.8078C235.862 47.3261 232.85 47.1971 229.791 46.0833C228.896 45.7579 228.224 43.8263 228.803 42.9294C229.382 42.0324 230.17 42.7154 230.77 43.0261C232.409 43.8732 234.128 43.6768 235.844 43.539C236.235 43.5292 236.611 43.3874 236.908 43.1377C237.206 42.8879 237.406 42.5452 237.477 42.1673C237.58 41.7962 237.546 41.4014 237.383 41.052C237.219 40.7026 236.935 40.4209 236.581 40.2562C235.447 39.6905 234.241 39.2596 233.077 38.7408C231.752 38.1545 230.316 37.6826 229.603 36.2698C228.111 33.3386 229.51 30.1144 232.716 29.0621C235.155 28.2619 237.623 28.4759 240.103 28.9126C240.87 29.0504 241.017 29.4637 241.014 30.0851C241.005 30.8442 241.008 31.5858 241.008 32.5179Z" fill="white"/>
<path d="M220.903 33.0863C220.903 29.3814 220.957 25.6764 220.876 21.9744C220.846 20.626 221.327 20.1395 222.643 20.3153C223.024 20.3638 223.411 20.3638 223.792 20.3153C225.21 20.1395 225.696 20.711 225.681 22.118C225.616 27.6432 225.655 33.1713 225.652 38.6966C225.652 40.7073 225.601 42.7181 225.652 44.7259C225.687 45.913 225.302 46.5139 224.019 46.3996C223.509 46.3513 222.995 46.3513 222.485 46.3996C221.204 46.5345 220.84 45.9658 220.858 44.7611C220.918 40.8685 220.879 36.976 220.879 33.0805L220.903 33.0863Z" fill="white"/>
<path d="M217.189 33.4618C217.189 37.1609 217.133 40.863 217.219 44.5621C217.252 45.9544 216.816 46.4175 215.384 46.4116C212.399 46.4116 212.399 46.4761 212.399 43.6329C212.399 36.5454 212.399 29.4579 212.417 22.3704C212.417 21.6698 212.094 20.6586 213.094 20.4417C214.321 20.172 215.655 20.0899 216.84 20.6029C217.41 20.852 217.169 21.6258 217.171 22.171C217.171 25.9346 217.171 29.6982 217.171 33.4618H217.189Z" fill="white"/>
<path d="M81.8891 31.4891C83.5516 29.5985 85.3096 28.4876 87.8974 28.4994C91.1807 28.4994 93.2372 31.2136 93.4551 34.1301C93.7147 37.6299 93.5118 41.1649 93.4789 44.6822C93.4789 45.5616 93.5118 46.4409 92.1119 46.394C90.712 46.3471 91.0314 45.3447 91.0195 44.6353C90.9598 41.6192 91.0672 38.5972 90.9658 35.581C90.8285 31.5653 88.6854 29.8653 85.0857 30.7622C83.1397 31.2458 81.6324 33.4471 81.6234 35.8331C81.6234 38.7877 81.5965 41.7452 81.6234 44.6998C81.6234 45.6759 81.5577 46.4057 80.2235 46.4116C78.8893 46.4175 78.8088 45.7023 78.8147 44.7203C78.8446 40.0657 78.8326 35.411 78.8804 30.7593C78.8804 29.9825 78.5192 28.9596 80.0504 28.9039C81.5816 28.8482 81.7129 29.663 81.6264 30.7944C81.6055 30.982 81.7458 31.1462 81.8891 31.4891Z" fill="white"/>
<path d="M68.4516 43.9025C70.1141 39.4764 71.705 35.2497 73.2959 31.023C73.4636 30.4976 73.6712 29.9851 73.9167 29.49C74.4062 28.6107 75.3255 28.8276 75.9643 29.0621C76.7254 29.3552 76.206 29.9913 76.0031 30.4954C73.5466 36.6508 71.1289 42.8414 68.6127 48.9822C67.9262 50.6529 67.1442 52.3354 65.628 53.5196C64.6311 54.3257 63.3587 54.7282 62.0701 54.6451C61.1747 54.6012 60.8016 54.2963 60.8344 53.3994C60.8643 52.5758 61.2732 52.3676 62.0283 52.3119C65.1952 52.0804 67.7203 48.0002 66.5592 45.0222C64.7146 40.2385 62.8342 35.4608 60.9658 30.6889C60.7359 30.1026 60.0703 29.3083 61.1359 29.0357C61.9328 28.8334 62.87 28.5872 63.3476 30.0088C64.9027 34.6107 66.6876 39.1482 68.4516 43.9025Z" fill="white"/>
<path d="M159.398 44.5299C160.84 44.5094 161.858 44.5915 162.831 44.1196C163.246 43.9202 163.828 43.0526 164.201 43.9525C164.286 44.1426 164.331 44.3477 164.333 44.5554C164.335 44.7631 164.295 44.9691 164.213 45.1609C164.132 45.3527 164.012 45.5263 163.861 45.6713C163.709 45.8162 163.53 45.9295 163.332 46.0043C160.565 47.3057 157.885 47.2617 155.163 45.7844C151.65 43.8792 150.271 39.2304 151.354 35.0858C152.423 31.0056 156.521 28.177 159.822 28.5083C161.088 28.6372 162.389 28.5083 163.565 29.0769C164.499 29.5224 164.544 30.4633 164.183 31.1961C163.771 32.0256 163.255 31.1961 162.786 31.0261C158.607 29.5605 154.035 31.6768 153.882 36.2611C153.796 38.864 153.506 41.332 155.754 43.3399C156.238 43.7844 156.814 44.1209 157.444 44.3263C158.073 44.5317 158.739 44.6012 159.398 44.5299Z" fill="white"/>
<path d="M208.712 37.6005C208.712 39.9219 208.602 42.2493 208.754 44.562C208.859 46.1506 208.208 46.5581 206.784 46.4027C206.273 46.369 205.761 46.369 205.25 46.4027C204.468 46.4203 204.077 46.0862 204.077 45.2859C204.077 40.2678 204.063 35.2507 204.035 30.2345C204.035 29.3933 204.334 28.9301 205.274 28.9858C205.783 29.0386 206.296 29.0386 206.805 28.9858C208.312 28.7689 208.829 29.3346 208.742 30.8442C208.626 33.0806 208.712 35.3435 208.712 37.6005Z" fill="white"/>
<path d="M144.474 37.6005C144.474 35.2175 144.513 32.8345 144.474 30.4515C144.447 29.3318 144.82 28.9155 146.011 28.9155C147.25 28.9155 147.527 29.4402 147.503 30.513C147.464 35.2771 147.455 40.0422 147.477 44.8082C147.477 45.8165 147.324 46.4702 146.044 46.4672C144.763 46.4643 144.438 45.9045 144.471 44.7467C144.537 42.3666 144.489 39.9835 144.489 37.6005H144.474Z" fill="white"/>
<path d="M209.011 22.9683C209.041 24.343 207.772 25.5301 206.283 25.5213C205.006 25.5213 203.612 24.1993 203.743 22.9477C203.895 21.5291 204.767 20.7113 206.295 20.6908C207.823 20.6702 208.993 21.6024 209.011 22.9683Z" fill="white"/>
<path d="M144.439 22.6076C144.483 21.2915 145.089 20.6877 146.128 20.7229C146.353 20.7228 146.576 20.7682 146.783 20.8562C146.99 20.9442 147.176 21.0731 147.33 21.2347C147.484 21.3963 147.602 21.5872 147.678 21.7957C147.753 22.0041 147.785 22.2256 147.77 22.4464C147.755 23.402 147.173 24.1172 146.041 24.0263C145.036 23.9471 144.331 23.5104 144.439 22.6076Z" fill="white"/>
<path fill-rule="evenodd" clip-rule="evenodd" d="M20.6719 35.5867C27.0146 44.2043 35.8943 49.3426 45.95 52.7222C46.2091 52.8863 46.4744 53.0482 46.7515 53.1607C48.5893 54.0637 50.5874 54.3877 52.5912 54.7127C53.2771 54.8239 53.9637 54.9352 54.6449 55.07C54.0577 54.8128 53.4795 54.5383 52.9023 54.2644C51.2882 53.4982 49.6825 52.736 47.9149 52.369C47.9126 52.3675 47.9103 52.3661 47.908 52.3646C47.7869 52.3488 47.6589 52.3445 47.5311 52.3402C47.2555 52.3309 46.9806 52.3216 46.7768 52.1975C45.1486 51.1948 43.4453 50.3189 41.7423 49.4431C39.443 48.2607 37.1443 47.0785 35.0317 45.5849C29.3397 41.5633 23.8029 37.3806 21.4151 30.4982C19.3258 24.5392 20.7734 18.5714 27.9816 16.3554C33.4766 14.67 38.9955 15.1654 44.5203 15.9773C46.3814 16.2517 48.2256 16.6552 50.0704 17.0588C50.906 17.2416 51.7417 17.4244 52.5792 17.5953L52.7523 17.141C51.9498 16.5815 51.2206 15.9378 50.4926 15.2953C48.6349 13.6555 46.785 12.0227 43.7442 11.8122C36.8792 11.3578 30.1456 11.0002 23.5403 13.4888C19.3616 15.0657 16.4097 18.8704 16.3201 23.2231C16.2246 27.8836 17.9856 31.9433 20.6719 35.5867Z" fill="white"/>
<path d="M57.8176 44.3599C57.8564 36.947 57.8505 29.5341 57.8385 22.1212C57.8385 21.3005 58.1191 20.3244 56.6207 20.3068C55.0746 20.2893 55.4119 21.3855 55.394 22.1359C55.3254 25.0143 55.3671 27.8956 55.3671 31.1668C50.7915 26.8169 45.7621 28.2004 43.2101 32.2484C41.2074 35.4228 41.0044 38.99 42.5475 42.4663C44.4458 46.737 48.6574 47.9916 52.848 45.7727C53.7912 45.2714 54.3881 44.4683 55.2149 43.7209C55.2776 44.0755 55.3015 44.2602 55.3433 44.439C55.5283 45.2597 55.0597 46.4468 56.6864 46.4029C58.3788 46.3589 57.8147 45.1542 57.8176 44.3599ZM55.0866 40.6138C54.3046 42.9588 52.8838 44.3569 50.9527 44.5093C47.5142 44.779 45.7621 44.0931 44.8339 41.2646C43.9623 38.5972 43.7564 35.7159 45.4995 33.1394C47.1083 30.7681 49.1618 30.0617 51.9287 30.8678C54.0956 31.498 55.3612 33.4531 55.3403 36.1292C55.3403 36.4223 55.3403 36.7154 55.3403 36.7594C55.2955 38.392 55.4567 39.4971 55.0866 40.6138Z" fill="white"/>
<path d="M110.66 34.901C110.332 30.9146 109.541 29.5194 106.326 28.7133C104.065 28.1656 101.677 28.4513 99.6164 29.5164C98.8552 29.8946 98.4225 30.3958 98.4553 31.2751C98.4941 32.0431 98.5866 32.6352 99.5328 31.9317C101.118 30.7593 102.944 30.6537 104.831 30.7593C106.604 30.8589 107.702 31.9317 107.923 33.6904C108.072 34.8951 107.789 35.5429 106.389 35.6484C104.737 35.773 103.098 36.0338 101.491 36.4281C100.163 36.7535 98.7538 36.9967 97.8762 38.3187C96.3839 40.5669 96.2973 43.1287 97.7837 44.9988C99.1388 46.6959 102.228 47.2001 104.649 46.3207C105.872 45.8752 106.684 44.9753 107.672 44.1282C107.813 44.4448 107.953 44.6089 107.941 44.7613C107.845 45.8224 107.941 46.5904 109.406 46.4643C110.672 46.353 110.753 45.7052 110.735 44.7057C110.678 41.4374 110.929 38.1487 110.66 34.901ZM107.708 41.3788C106.872 43.6827 105.592 44.5122 102.882 44.5151C101.183 44.6412 99.7805 44.222 99.4104 42.3666C98.9657 40.1243 99.7417 38.9547 102.016 38.3392C102.939 38.098 103.873 37.9024 104.816 37.753C107.726 37.2635 108.741 38.5415 107.708 41.3788Z" fill="white"/>
</svg>
