<svg width="1440" height="235" viewBox="0 0 1440 235" fill="none" xmlns="http://www.w3.org/2000/svg">
<path fill-rule="evenodd" clip-rule="evenodd" d="M0 0.62793L39.6 13.5951C80.4 26.5623 159.6 52.4967 240 46.0131C320.4 39.5295 399.6 0.62793 480 20.0787C560.4 39.5295 639.6 117.333 720 149.751C800.4 182.169 879.6 169.201 960 143.267C1040.4 117.333 1119.6 78.4311 1200 65.4639C1280.4 52.4967 1359.6 65.4639 1400.4 71.9475L1440 78.4311V234.037H1400.4C1359.6 234.037 1280.4 234.037 1200 234.037C1119.6 234.037 1040.4 234.037 960 234.037C879.6 234.037 800.4 234.037 720 234.037C639.6 234.037 560.4 234.037 480 234.037C399.6 234.037 320.4 234.037 240 234.037C159.6 234.037 80.4 234.037 39.6 234.037H0V0.62793Z" fill="#065B84"/>
</svg>
